<svg width="160" height="24" viewBox="0 0 160 24" fill="none" xmlns="http://www.w3.org/2000/svg">
<g clip-path="url(#clip0_181_1706)">
<path fill-rule="evenodd" clip-rule="evenodd" d="M16.9532 2.5029C16.9532 2.5029 13.2044 0.962775 10.4127 3.27296C10.4127 3.27296 8.17931 4.96709 9.57516 6.77674C9.57516 6.77674 10.8514 8.8944 13.3639 7.23877C13.3639 7.23877 14.6002 6.43021 14.8794 5.0826C14.8794 5.0826 14.999 3.54248 16.9532 2.5029Z" fill="#C9DA2A"/>
<path fill-rule="evenodd" clip-rule="evenodd" d="M9.05683 9.81833C9.05683 9.81833 5.30798 8.2782 2.51628 10.5884C2.51628 10.5884 0.322802 12.2825 1.67877 14.0922C1.67877 14.0922 2.99486 16.2098 5.4675 14.5542C5.4675 14.5542 6.70383 13.7456 7.02288 12.398C7.02288 12.398 7.10264 10.8579 9.05683 9.81833Z" fill="#00ACDC"/>
<path fill-rule="evenodd" clip-rule="evenodd" d="M15.8773 9.66403C15.8773 9.66403 12.1284 8.12391 9.33674 10.4341C9.33674 10.4341 7.10339 12.1282 8.45935 13.9379C8.45935 13.9379 9.77544 16.017 12.288 14.3614C12.288 14.3614 13.5243 13.5913 13.8035 12.2052C13.8035 12.2052 13.9231 10.7036 15.8773 9.66403Z" fill="#C9DA2A"/>
<path fill-rule="evenodd" clip-rule="evenodd" d="M22.6568 9.66411C22.6568 9.66411 18.908 8.08549 16.1163 10.3957C16.1163 10.3957 13.8829 12.1283 15.2788 13.8994C15.2788 13.8994 16.555 16.0171 19.0675 14.3615C19.0675 14.3615 20.3038 13.5529 20.583 12.2053C20.583 12.2053 20.7026 10.6652 22.6568 9.66411Z" fill="#F58A1F"/>
<path fill-rule="evenodd" clip-rule="evenodd" d="M7.8205 16.6723C7.8205 16.6723 4.07165 15.1322 1.27995 17.4424C1.27995 17.4424 -0.913526 19.1365 0.442442 20.9462C0.442442 20.9462 1.75853 23.0638 4.23118 21.4082C4.23118 21.4082 5.4675 20.5996 5.78655 19.252C5.78655 19.252 5.86631 17.7119 7.8205 16.6723Z" fill="#00ACDC"/>
<path fill-rule="evenodd" clip-rule="evenodd" d="M14.6412 16.5185C14.6412 16.5185 10.8924 14.9784 8.10066 17.2886C8.10066 17.2886 5.8673 18.9827 7.26315 20.7924C7.26315 20.7924 8.53936 22.8715 11.0519 21.2159C11.0519 21.2159 12.2882 20.4458 12.5674 19.0597C12.5674 19.0597 12.687 17.5581 14.6412 16.5185Z" fill="#C9DA2A"/>
<path fill-rule="evenodd" clip-rule="evenodd" d="M21.4201 16.5181C21.4201 16.5181 17.6713 14.9395 14.8796 17.2497C14.8796 17.2497 12.6861 18.9823 14.0421 20.7535C14.0421 20.7535 15.3581 22.8711 17.8308 21.2155C17.8308 21.2155 19.0671 20.4454 19.3862 19.0593C19.3862 19.0593 19.4659 17.5192 21.4201 16.5181Z" fill="#F58A1F"/>
<path fill-rule="evenodd" clip-rule="evenodd" d="M27.9998 16.5185C27.9998 16.5185 24.251 14.9784 21.4593 17.2886C21.4593 17.2886 19.2259 18.9827 20.5819 20.7924C20.5819 20.7924 21.898 22.91 24.4105 21.2159C24.4105 21.2159 25.6468 20.4458 25.926 19.0982C25.926 19.0982 26.0457 17.5581 27.9998 16.5185Z" fill="#B62467"/>
<path fill-rule="evenodd" clip-rule="evenodd" d="M43.2452 16.3166C42.9414 16.7941 42.5507 17.1847 42.0733 17.532C41.5958 17.8358 41.0316 18.0962 40.4239 18.2698C39.8162 18.4001 39.2086 18.4869 38.5141 18.4869C36.9949 18.4869 35.5192 18.0528 34 17.2281L34.8681 15.4051C35.6494 15.7524 36.3439 16.0128 36.9515 16.1864C37.5158 16.4034 38.1234 16.4903 38.7311 16.4903C39.0349 16.4903 39.3388 16.4468 39.6426 16.36C39.9464 16.2732 40.2503 16.143 40.5107 15.9694C40.7277 15.8392 40.9447 15.6222 41.075 15.4051C41.2486 15.1881 41.292 14.9277 41.292 14.6239C41.292 14.2766 41.1184 14.0162 40.7711 13.7992C40.4239 13.6255 39.9464 13.4519 39.4256 13.3217C38.8613 13.1915 38.2971 13.0613 37.6894 12.9311C37.0383 12.8009 36.4741 12.5838 35.9098 12.3668C35.3889 12.1064 34.9549 11.7591 34.5643 11.3251C34.217 10.8911 34.0434 10.3268 34.0434 9.58891C34.0434 9.11146 34.1736 8.63401 34.434 8.19997C34.6945 7.76592 35.0851 7.37528 35.5192 7.07144C35.9532 6.72421 36.4741 6.46378 37.0817 6.29016C37.6894 6.07314 38.2971 5.98633 38.9481 5.98633C39.5992 5.98633 40.2937 6.07314 41.075 6.24676C41.8128 6.42037 42.4639 6.6808 43.0716 7.07144L42.0299 8.89444C41.509 8.5472 40.9447 8.28677 40.4239 8.19997C39.903 8.06975 39.3822 8.02635 38.8613 8.02635C38.5141 8.02635 38.2103 8.06975 37.9498 8.11316C37.646 8.19997 37.3856 8.33018 37.1685 8.46039C36.9081 8.59061 36.7345 8.76423 36.6043 8.93784C36.4741 9.11146 36.3873 9.32849 36.3873 9.54551C36.3873 9.93615 36.6043 10.1966 36.9515 10.4136C37.2988 10.5872 37.7328 10.7608 38.2971 10.8911C38.8179 11.0213 39.4256 11.1515 40.0332 11.2817C40.6409 11.4119 41.2486 11.6289 41.7694 11.8894C42.3337 12.1064 42.7677 12.4536 43.115 12.8877C43.4622 13.3217 43.6792 13.9294 43.6792 14.6673C43.6792 15.2749 43.5056 15.8392 43.2452 16.3166Z" fill="#001E13"/>
<path fill-rule="evenodd" clip-rule="evenodd" d="M57.1292 14.7113C56.8254 15.4926 56.3913 16.187 55.8271 16.7513C55.3062 17.3156 54.6551 17.7496 53.9173 18.0534C53.136 18.4007 52.3547 18.5309 51.4866 18.5309C51.0526 18.5309 50.5751 18.4875 50.1411 18.4441C49.6636 18.3573 49.1862 18.227 48.7521 18.0968V23.9999H46.4517V5.68311L48.2313 6.5512C48.7087 6.37758 49.2296 6.24737 49.7938 6.16056C50.4015 6.07375 50.9657 6.03034 51.5734 6.03034C52.4415 6.03034 53.2228 6.16056 53.9607 6.46439C54.6985 6.76822 55.3496 7.20227 55.8705 7.76653C56.3913 8.33079 56.8254 8.98186 57.1292 9.76314C57.433 10.501 57.6067 11.3257 57.6067 12.2372C57.6067 13.1487 57.433 13.9734 57.1292 14.7113ZM54.959 10.6746C54.7419 10.1538 54.4381 9.71974 54.0909 9.3291C53.7436 8.98186 53.3096 8.67803 52.7887 8.461C52.3113 8.28738 51.747 8.15717 51.1828 8.15717C50.7921 8.15717 50.4015 8.20058 50.0977 8.24398C49.7504 8.28738 49.3164 8.4176 48.7955 8.63462V15.7964C49.273 16.0134 49.6636 16.187 50.0108 16.2738C50.3581 16.3606 50.7921 16.4041 51.2262 16.4041C52.4415 16.4041 53.3964 16.0134 54.1343 15.2755C54.8722 14.5377 55.2628 13.5828 55.2628 12.3674C55.2628 11.7164 55.1326 11.1955 54.959 10.6746Z" fill="#001E13"/>
<path fill-rule="evenodd" clip-rule="evenodd" d="M65.2448 18.1397C65.0712 18.2265 64.8542 18.3133 64.5937 18.3567C64.3333 18.4002 64.0729 18.4436 63.8124 18.4436C63.4652 18.4436 63.0312 18.3567 62.5971 18.2265C62.1631 18.0963 61.7724 17.8793 61.4252 17.5755C61.0345 17.315 60.7307 16.9678 60.5137 16.5338C60.2533 16.0997 60.123 15.6223 60.123 15.1014V0.734461L62.5103 -0.00341797V14.7976C62.5103 15.058 62.5537 15.3184 62.6405 15.5354C62.7273 15.7525 62.8575 15.9261 63.0312 16.0563C63.1614 16.1865 63.335 16.3167 63.552 16.3601C63.7256 16.4035 63.8993 16.4469 64.1163 16.4469C64.2899 16.4469 64.5503 16.4035 64.7673 16.2733C65.0278 16.1865 65.2448 16.0563 65.4184 15.9261L65.2448 18.1397Z" fill="#001E13"/>
<path fill-rule="evenodd" clip-rule="evenodd" d="M75.0323 18.0962C74.8586 18.1396 74.5982 18.183 74.3378 18.2264C74.034 18.2698 73.7301 18.3132 73.3829 18.3566C73.0357 18.4 72.6884 18.4 72.3412 18.4434C71.9939 18.4434 71.6467 18.4868 71.3863 18.4868C70.8654 18.4868 70.4314 18.3566 69.9973 18.1396C69.5633 17.9226 69.1726 17.6187 68.8254 17.2715C68.5216 16.9242 68.2611 16.4902 68.0875 16.0562C67.8705 15.6221 67.7837 15.1881 67.7837 14.7106C67.7837 13.8425 68.0007 13.1046 68.3914 12.5404C68.782 11.9761 69.3029 11.5421 69.9105 11.2382C70.5616 10.9344 71.2561 10.7174 72.0808 10.6306C72.9054 10.5438 73.7301 10.5004 74.5982 10.5004V9.58886C74.5982 9.0246 74.4246 8.59055 74.0774 8.33013C73.7301 8.02629 73.2527 7.85268 72.645 7.85268C72.0808 7.85268 71.5165 7.93948 70.8654 8.1131C70.2144 8.28672 69.6067 8.59055 69.0424 8.9812L68.1309 7.1582C68.9556 6.63735 69.7803 6.33351 70.605 6.15989C71.4297 6.02968 72.211 5.94287 72.9488 5.94287C73.3395 5.94287 73.7735 5.98628 74.2076 6.07309C74.6416 6.15989 75.0757 6.33351 75.4663 6.59394C75.857 6.85437 76.2042 7.20161 76.4646 7.63565C76.725 8.0697 76.8553 8.63396 76.8553 9.32843V18.7472L75.0323 18.0962ZM74.5982 12.4102C73.9906 12.3668 73.4263 12.4102 72.9054 12.4536C72.3846 12.497 71.9071 12.6272 71.5165 12.8008C71.0824 12.9744 70.7786 13.1914 70.5182 13.4953C70.2578 13.8425 70.1275 14.2332 70.1275 14.7106C70.1275 15.2315 70.3012 15.6655 70.605 16.0127C70.9522 16.36 71.3429 16.5336 71.8203 16.5336C72.0373 16.5336 72.2544 16.5336 72.5582 16.4902C72.8186 16.4902 73.0791 16.4468 73.3395 16.4034C73.5999 16.36 73.8169 16.3166 74.034 16.2732C74.251 16.2298 74.4246 16.143 74.5548 16.0996L74.5982 12.4102Z" fill="#001E13"/>
<path fill-rule="evenodd" clip-rule="evenodd" d="M88.96 16.3166C88.6562 16.7941 88.2656 17.1847 87.7881 17.532C87.3107 17.8358 86.7464 18.0962 86.1387 18.2698C85.5311 18.4001 84.9234 18.4869 84.2289 18.4869C82.7098 18.4869 81.234 18.0528 79.7148 17.2281L80.5829 15.4051C81.3642 15.7524 82.0587 16.0128 82.6664 16.1864C83.2306 16.4034 83.8383 16.4903 84.4459 16.4903C84.7498 16.4903 85.0536 16.4468 85.3574 16.36C85.6613 16.2732 85.9651 16.143 86.2255 15.9694C86.4426 15.8392 86.6596 15.6222 86.7898 15.4051C86.9634 15.1881 87.0068 14.9277 87.0068 14.6239C87.0068 14.2766 86.8332 14.0162 86.486 13.7992C86.1387 13.6255 85.6613 13.4519 85.1404 13.3217C84.5762 13.1915 84.0119 13.0613 83.4042 12.9311C82.7532 12.8009 82.1889 12.5838 81.6246 12.3668C81.1038 12.1064 80.6697 11.7591 80.2791 11.3251C79.9319 10.8911 79.7582 10.3268 79.7582 9.58891C79.7582 9.11146 79.8885 8.63401 80.1489 8.19997C80.4093 7.76592 80.8 7.37528 81.234 7.07144C81.6681 6.72421 82.1889 6.46378 82.7966 6.29016C83.4042 6.07314 84.0119 5.98633 84.663 5.98633C85.314 5.98633 86.0085 6.07314 86.7898 6.24676C87.5277 6.42037 88.1787 6.6808 88.7864 7.07144L87.7447 8.89444C87.2238 8.5472 86.6596 8.28677 86.1387 8.19997C85.6179 8.06975 85.097 8.02635 84.5762 8.02635C84.2289 8.02635 83.9251 8.06975 83.6647 8.11316C83.3608 8.19997 83.1004 8.33018 82.8834 8.46039C82.623 8.59061 82.4493 8.76423 82.3191 8.93784C82.1889 9.11146 82.1021 9.32849 82.1021 9.54551C82.1021 9.93615 82.3191 10.1966 82.6664 10.4136C83.0136 10.5872 83.4476 10.7608 84.0119 10.8911C84.5328 11.0213 85.1404 11.1515 85.7481 11.2817C86.3558 11.4119 86.9634 11.6289 87.4843 11.8894C88.0485 12.1064 88.4826 12.4536 88.8298 12.8877C89.1771 13.3217 89.3941 13.9294 89.3941 14.6673C89.3941 15.2749 89.2205 15.8392 88.96 16.3166Z" fill="#001E13"/>
<path fill-rule="evenodd" clip-rule="evenodd" d="M100.156 18.2263V11.4117C100.156 10.37 99.939 9.54534 99.5049 8.93768C99.0709 8.37342 98.4198 8.06958 97.5083 8.06958C97.2045 8.06958 96.9006 8.06958 96.6402 8.11299C96.3798 8.15639 96.1628 8.2432 95.9457 8.33001C95.7287 8.37342 95.5117 8.50363 95.2947 8.59044C95.0776 8.72065 94.8172 8.85087 94.6002 9.02449V18.2263H92.2563V0.734199L94.6002 -0.220703V6.72404C95.0342 6.55042 95.4683 6.3768 95.9457 6.20318C96.4232 6.07297 96.9875 5.98616 97.6385 5.98616C98.333 5.98616 98.9407 6.07297 99.5483 6.28999C100.113 6.50702 100.633 6.81085 101.024 7.2449C101.458 7.63554 101.805 8.15639 102.066 8.80746C102.283 9.41513 102.413 10.153 102.413 10.9777V18.2263H100.156Z" fill="#001E13"/>
<path d="M119.983 18.2273V1.16926L122.457 0.214355V18.2273H119.983Z" fill="#00ACDC"/>
<path d="M110.482 18.2271H105.317V0.170741C107.531 0.083932 109.093 0.0405273 110.048 0.0405273C111.828 0.0405273 113.217 0.431169 114.215 1.16905C115.17 1.95033 115.691 3.03545 115.691 4.4678C115.691 5.29249 115.343 6.07377 114.736 6.76825C114.128 7.46272 113.434 7.89677 112.652 8.07039C114.085 8.41762 115.126 8.98188 115.777 9.76317C116.428 10.5445 116.732 11.6296 116.732 13.0185C116.732 14.5811 116.168 15.8398 114.996 16.7947C113.868 17.7496 112.348 18.2271 110.482 18.2271ZM107.791 9.24231V16.1437C108.616 16.2305 109.267 16.2739 109.744 16.2739C111.263 16.2739 112.392 15.97 113.086 15.4058C113.824 14.7981 114.171 13.8866 114.171 12.6279C114.171 11.4559 113.824 10.5879 113.13 10.0236C112.479 9.45934 111.35 9.1555 109.744 9.1555L107.791 9.24231ZM107.791 2.16736V7.33251C108.312 7.37591 108.963 7.41932 109.701 7.41932C112.045 7.41932 113.217 6.46441 113.217 4.55461C113.217 2.90523 112.131 2.08055 110.005 2.08055C109.18 2.08055 108.442 2.08055 107.791 2.16736Z" fill="#00ACDC"/>
</g>
<defs>
<clipPath id="clip0_181_1706">
<rect width="160" height="24" fill="white"/>
</clipPath>
</defs>
</svg>
